<svg xmlns="http://www.w3.org/2000/svg" xmlns:xlink="http://www.w3.org/1999/xlink" width="380.544" height="78.564" viewBox="0 0 380.544 78.564">
  <defs>
    <clipPath id="clip-path">
      <rect id="Rectangle_1231" data-name="Rectangle 1231" width="380.544" height="78.564" transform="translate(0 0)" fill="none"/>
    </clipPath>
  </defs>
  <g id="Group_699" data-name="Group 699" transform="translate(0 0)">
    <g id="Group_698" data-name="Group 698" clip-path="url(#clip-path)">
      <path id="Path_891" data-name="Path 891" d="M21.094,77.588,0,22.266H19.922L29.3,54.981c.032.163.1.439.195.83s.2.854.293,1.391.187,1.107.269,1.709a12.7,12.7,0,0,1,.122,1.685h.342a19.589,19.589,0,0,1,.879-5.518l9.814-32.812H61.084L39.99,77.588Z" fill="#fff"/>
      <rect id="Rectangle_1229" data-name="Rectangle 1229" width="19.092" height="55.322" transform="translate(67.773 22.265)" fill="#fff"/>
      <path id="Path_892" data-name="Path 892" d="M141.8,77.588H96V66.7l22.9-29.834H97.315v-14.6h43.408V34.082L118.8,62.988h23Z" fill="#fff"/>
      <rect id="Rectangle_1230" data-name="Rectangle 1230" width="19.092" height="55.322" transform="translate(150.976 22.265)" fill="#fff"/>
      <path id="Path_893" data-name="Path 893" d="M231.23,49.805" fill="#1a171b"/>
      <path id="Path_894" data-name="Path 894" d="M305.74,77.588V47.412q0-5.517-1.587-8.325a5.424,5.424,0,0,0-5.1-2.808,7.387,7.387,0,0,0-6.983,3.858q-2.148,3.858-2.148,13.232V77.588H270.828V22.266h14.4l2.393,6.836h1.123a15.13,15.13,0,0,1,6.763-5.86,23.908,23.908,0,0,1,9.936-1.953q9.179,0,14.282,5.322t5.1,14.991V77.588Z" fill="#fff"/>
      <path id="Path_896" data-name="Path 896" d="M219.994,77.77c-19.311,0-37.019-9.611-46.215-25.081l-1.467-2.468,1.467-2.468c9.2-15.469,26.9-25.079,46.215-25.079s37.018,9.61,46.214,25.079l1.467,2.468-1.467,2.468c-9.2,15.47-26.9,25.081-46.214,25.081M183.681,50.221c7.825,11.1,21.462,17.891,36.313,17.891s28.487-6.788,36.312-17.891c-7.825-11.1-21.462-17.889-36.312-17.889s-28.488,6.786-36.313,17.889" fill="#fff"/>
      <path id="Path_897" data-name="Path 897" d="M242.7,50.007q0,11.211-6.029,17.482T219.789,73.76q-10.405,0-16.555-6.412t-6.15-17.341q0-11.17,6.029-17.361t16.917-6.191a24.117,24.117,0,0,1,11.9,2.864,19.546,19.546,0,0,1,7.965,8.206,26.509,26.509,0,0,1,2.8,12.482m-29.6,0q0,5.889,1.573,8.973a5.465,5.465,0,0,0,5.283,3.085,5.311,5.311,0,0,0,5.182-3.085q1.512-3.085,1.512-8.973,0-5.847-1.532-8.832a6.072,6.072,0,0,0-10.445-.02q-1.574,2.964-1.573,8.852" fill="#fff"/>
      <path id="Path_898" data-name="Path 898" d="M67.285,8.5q0-4.3,2.393-6.4T77.392,0q5.322,0,7.764,2.148T87.6,8.5q0,8.4-10.205,8.4-10.107,0-10.107-8.4" fill="#fff"/>
      <path id="Path_899" data-name="Path 899" d="M150.488,8.5q0-4.3,2.393-6.4T160.6,0q5.322,0,7.764,2.148T170.8,8.5q0,8.4-10.205,8.4-10.107,0-10.107-8.4" fill="#fff"/>
    </g>
  </g>
</svg>
