<svg xmlns="http://www.w3.org/2000/svg" width="217.668" height="53.707" viewBox="0 0 217.668 53.707">
  <g id="Group_694" data-name="Group 694" transform="translate(0 0)">
    <g id="Group_702" data-name="Group 702" transform="translate(0 0)">
      <path id="Path_882" data-name="Path 882" d="M14.135,59.337,0,22.266H13.35l6.282,21.922c.021.109.066.294.131.556s.131.572.2.932.125.742.18,1.145a8.512,8.512,0,0,1,.082,1.129h.229a13.126,13.126,0,0,1,.589-3.7l6.576-21.987H40.932L26.8,59.337Z" transform="translate(0 -7.346)" fill="#14d0d6"/>
      <rect id="Rectangle_1225" data-name="Rectangle 1225" width="12.793" height="37.071" transform="translate(45.414 14.92)" fill="#14d0d6"/>
      <path id="Path_883" data-name="Path 883" d="M126.687,59.337H96v-7.3l15.346-19.992H96.88V22.266h29.087v7.918l-14.691,19.37h15.411Z" transform="translate(-31.67 -7.346)" fill="#14d0d6"/>
      <rect id="Rectangle_1226" data-name="Rectangle 1226" width="12.793" height="37.071" transform="translate(101.168 14.92)" fill="#14d0d6"/>
      <path id="Path_884" data-name="Path 884" d="M231.23,49.805" transform="translate(-76.284 -16.431)" fill="#1a171b"/>
      <path id="Path_885" data-name="Path 885" d="M294.222,59.015V38.794a11.6,11.6,0,0,0-1.063-5.579,3.635,3.635,0,0,0-3.419-1.882,4.95,4.95,0,0,0-4.679,2.585q-1.439,2.585-1.439,8.867V59.015H270.828V21.944h9.652l1.6,4.581h.753a10.139,10.139,0,0,1,4.532-3.927,16.021,16.021,0,0,1,6.658-1.309q6.15,0,9.57,3.566T307.016,34.9V59.015Z" transform="translate(-89.348 -7.024)" fill="#14d0d6"/>
      <path id="Path_887" data-name="Path 887" d="M206.116,27.5c-12.2,0-22.8,6.164-28.186,15.225,5.386,9.06,15.986,15.224,28.186,15.224s22.8-6.164,28.186-15.224C228.917,33.666,218.317,27.5,206.116,27.5Z" transform="translate(-58.7 -9.073)" fill="none" stroke="#14d0d6" stroke-miterlimit="10" stroke-width="9.659"/>
      <path id="Path_888" data-name="Path 888" d="M227.648,42.237q0,7.512-4.04,11.715t-11.309,4.2q-6.973,0-11.093-4.3t-4.121-11.62q0-7.485,4.04-11.633t11.336-4.149a16.161,16.161,0,0,1,7.972,1.919,13.1,13.1,0,0,1,5.337,5.5,17.764,17.764,0,0,1,1.878,8.364m-19.835,0a13.592,13.592,0,0,0,1.054,6.013,3.662,3.662,0,0,0,3.54,2.067,3.559,3.559,0,0,0,3.472-2.067,14.077,14.077,0,0,0,1.013-6.013,13.373,13.373,0,0,0-1.027-5.918,4.069,4.069,0,0,0-7-.013,13.047,13.047,0,0,0-1.054,5.932" transform="translate(-65.019 -8.728)" fill="#14d0d6"/>
      <path id="Path_889" data-name="Path 889" d="M67.285,5.693a5.4,5.4,0,0,1,1.6-4.286Q70.491,0,74.058,0t5.2,1.439A5.366,5.366,0,0,1,80.9,5.693q0,5.628-6.838,5.627-6.773,0-6.773-5.627" transform="translate(-22.198 0)" fill="#14d0d6"/>
      <path id="Path_890" data-name="Path 890" d="M150.488,5.693a5.4,5.4,0,0,1,1.6-4.286Q153.694,0,157.261,0t5.2,1.439A5.366,5.366,0,0,1,164.1,5.693q0,5.628-6.838,5.627-6.773,0-6.773-5.627" transform="translate(-49.647 0)" fill="#14d0d6"/>
    </g>
  </g>
</svg>
